<?xml version="1.0" encoding="utf-8"?>
<!-- Generator: Adobe Illustrator 25.2.3, SVG Export Plug-In . SVG Version: 6.00 Build 0)  -->
<svg version="1.1" id="Layer_1" xmlns="http://www.w3.org/2000/svg" xmlns:xlink="http://www.w3.org/1999/xlink" x="0px" y="0px"
	 viewBox="0 0 512 512" style="enable-background:new 0 0 512 512;" xml:space="preserve">
<style type="text/css">
	.st0{fill:url(#SVGID_1_);}
	.st1{fill:url(#SVGID_2_);}
	.st2{fill:url(#SVGID_3_);}
	.st3{fill:#6DC8BD;}
	.st4{fill:url(#SVGID_4_);}
	.st5{fill:url(#SVGID_5_);}
	.st6{fill:url(#SVGID_6_);}
	.st7{fill:url(#SVGID_7_);}
	.st8{fill:url(#SVGID_8_);}
	.st9{fill:url(#SVGID_9_);}
	.st10{fill:url(#SVGID_10_);}
	.st11{fill:url(#SVGID_11_);}
	.st12{fill:url(#SVGID_12_);}
	.st13{fill:url(#SVGID_13_);}
	.st14{fill:url(#SVGID_14_);}
	.st15{fill:url(#SVGID_15_);}
	.st16{fill:url(#SVGID_16_);}
	.st17{fill:url(#SVGID_17_);}
	.st18{fill:url(#SVGID_18_);}
	.st19{fill:url(#SVGID_19_);}
	.st20{fill:url(#SVGID_20_);}
	.st21{fill:url(#SVGID_21_);}
</style>
<g>
	<g>
		<linearGradient id="SVGID_1_" gradientUnits="userSpaceOnUse" x1="254.4756" y1="292.5367" x2="376.8453" y2="107.6345">
			<stop  offset="0.2" style="stop-color:#30878D"/>
			<stop  offset="0.2222" style="stop-color:#388D92"/>
			<stop  offset="0.3205" style="stop-color:#55A9A7"/>
			<stop  offset="0.3994" style="stop-color:#67BEB6"/>
			<stop  offset="0.4486" style="stop-color:#6DC8BD"/>
			<stop  offset="0.5657" style="stop-color:#6BC7BA"/>
			<stop  offset="0.6716" style="stop-color:#63C4B3"/>
			<stop  offset="0.7732" style="stop-color:#55C0A6"/>
			<stop  offset="0.8717" style="stop-color:#3DBB96"/>
			<stop  offset="0.9297" style="stop-color:#22B78A"/>
		</linearGradient>
		<path class="st0" d="M377.5,191.2c0,4.9-0.3,9.8-0.9,14.6c-3.7,28.7-18,54.1-38.8,72c-7.2,1.9-14.7,3.1-22.5,3.7
			c-2.8,0.2-5.7,0.3-8.5,0.3c-15.6,0-30.5-2.9-44.2-8.3c34.1-11.2,61.2-38,72.7-71.9c1-3,2.4-5.6,3.3-9.1c2.6-7.1,2.6-10.5,2.6-16.2
			c0-1.1,0-2.1-0.1-3.2c0.2-2.8,0.3-5.6,0.3-8.4c0-4.5-0.3-8.8-0.7-13.2c-2.8-24.6-13.4-46.7-29.2-64
			C350.5,105.7,377.5,145.3,377.5,191.2z"/>
		<linearGradient id="SVGID_2_" gradientUnits="userSpaceOnUse" x1="129.1894" y1="80.8241" x2="349.1314" y2="410.198">
			<stop  offset="0.2" style="stop-color:#30878D"/>
			<stop  offset="0.2222" style="stop-color:#388D92"/>
			<stop  offset="0.3205" style="stop-color:#55A9A7"/>
			<stop  offset="0.3994" style="stop-color:#67BEB6"/>
			<stop  offset="0.4486" style="stop-color:#6DC8BD"/>
			<stop  offset="0.5657" style="stop-color:#6BC7BA"/>
			<stop  offset="0.6716" style="stop-color:#63C4B3"/>
			<stop  offset="0.7732" style="stop-color:#55C0A6"/>
			<stop  offset="0.8717" style="stop-color:#3DBB96"/>
			<stop  offset="0.9297" style="stop-color:#22B78A"/>
		</linearGradient>
		<path class="st1" d="M337.8,277.8c-14.4,12.4-32,21.3-51.4,25.3c-7.5,1.5-15.3,2.4-23.2,2.4c-8.3,0-16.4-0.9-24.2-2.6
			c-23.3-5-44-17.2-59.7-34c-16.1-17.4-26.9-39.8-29.7-64.7c4.9-21.3,17.7-39.7,35.4-52.5c7.9-5.7,16.8-10.2,26.4-13.4
			C197,145,187,159.7,187,176.7c0,7.2,4.5,21.6,4.3,22.3c11.6,34.1,37.9,61.4,71.3,74.4c13.7,5.3,28.6,8.3,44.2,8.3
			c2.9,0,5.7-0.1,8.5-0.3C323,280.9,330.6,279.7,337.8,277.8z"/>
		<linearGradient id="SVGID_3_" gradientUnits="userSpaceOnUse" x1="353.8908" y1="174.4681" x2="132.8707" y2="121.0998">
			<stop  offset="0.2" style="stop-color:#30878D"/>
			<stop  offset="0.2222" style="stop-color:#388D92"/>
			<stop  offset="0.3205" style="stop-color:#55A9A7"/>
			<stop  offset="0.3994" style="stop-color:#67BEB6"/>
			<stop  offset="0.4486" style="stop-color:#6DC8BD"/>
			<stop  offset="0.5657" style="stop-color:#6BC7BA"/>
			<stop  offset="0.6716" style="stop-color:#63C4B3"/>
			<stop  offset="0.7732" style="stop-color:#55C0A6"/>
			<stop  offset="0.8717" style="stop-color:#3DBB96"/>
			<stop  offset="0.9297" style="stop-color:#22B78A"/>
		</linearGradient>
		<path class="st2" d="M341.4,164.7c0,2.8-0.1,5.6-0.3,8.4c-1-13-7.8-24.3-17.8-31.4c-6.9-4.9-15.3-7.7-24.4-7.7
			c-1.2,0-2.3,0-3.4,0.1c-6.4,0.5-12.4,2.4-17.7,5.5c-5.5,3.2-10.2,7.5-13.8,12.7c-3.8-5.4-8.9-9.9-14.9-13
			c-5.9-3.1-12.6-4.9-19.7-4.9c-0.4,0-0.8,0-1.1,0c-5.9,0.2-11.6,1.5-16.7,3.9c-9.6,3.1-18.5,7.7-26.4,13.4
			c-17.7,12.7-30.6,31.2-35.4,52.5c-0.5-4.3-0.7-8.6-0.7-13c0-41.8,22.4-78.3,55.9-98.2c17.1-10.2,37.1-16,58.4-16
			c17.2,0,33.5,3.8,48.2,10.6c15.8,17.3,26.4,39.5,29.2,64C341.1,155.9,341.4,160.3,341.4,164.7z"/>
	</g>
	<g>
		<g>
			<path class="st3" d="M253.1,403.5C253.1,403.5,253.1,403.5,253.1,403.5c-3.3-2.9-7.8-5.2-13.6-7.1c-1-0.3-2-0.7-3.1-1
				c-4.8-1.6-8.1-3.1-10.1-4.6c-1.9-1.4-2.9-3.3-2.9-5.5c0-1.2,0.2-2.3,0.6-3.2c-1.8,3.6-3,10.8,4.6,22.6l0,0
				c1.5,0.6,3.2,1.1,4.9,1.6c0.6,0.2,1.2,0.4,1.8,0.6c2.1,0.7,3.9,1.5,5.3,2.2c0,0,0,0,0,0c0.7,0.4,1.3,0.7,1.8,1.1c0,0,0,0,0,0
				c0.2,0.1,0.4,0.3,0.5,0.4c0.5,0.4,1,0.9,1.3,1.5c2.7,3.6,4.2,10.6-6.5,22.9c5.9-0.4,10.7-2,14.5-4.8c4.4-3.3,6.7-7.8,6.7-13.5
				C258.9,411.3,257,406.9,253.1,403.5z"/>
			<path class="st3" d="M258.2,386.9l-0.1,0.3h-12.9c0-3.3-1-5.9-3-7.6c-2-1.8-4.8-2.7-8.4-2.7c-3.3,0-5.8,0.8-7.6,2.4c0,0,0,0,0,0
				c0,0,0,0,0,0c0,0-0.1,0.1-0.1,0.1c0,0-0.1,0.1-0.1,0.1c-0.1,0.1-0.1,0.1-0.2,0.2c-0.7,0.7-1.2,1.5-1.6,2.4c0,0,0,0,0,0
				c-1.8,3.6-3,10.8,4.6,22.6c-5.3-1.9-9.5-4.1-12.6-6.6c-4-3.1-6-7.4-6-12.8c0-5.4,2.2-9.9,6.7-13.4c4.5-3.5,10.2-5.2,17.1-5.2
				c7.4,0,13.3,1.9,17.8,5.6C256.2,376,258.3,380.9,258.2,386.9z"/>
			<linearGradient id="SVGID_4_" gradientUnits="userSpaceOnUse" x1="251.9019" y1="423.777" x2="185.9728" y2="422.9354">
				<stop  offset="0.2" style="stop-color:#30878D"/>
				<stop  offset="0.2222" style="stop-color:#388D92"/>
				<stop  offset="0.3205" style="stop-color:#55A9A7"/>
				<stop  offset="0.3994" style="stop-color:#67BEB6"/>
				<stop  offset="0.4486" style="stop-color:#6DC8BD"/>
			</linearGradient>
			<path class="st4" d="M237.7,435c-1,0.1-2.1,0.1-3.2,0.1c-7.2,0-13.3-1.8-18.4-5.3s-7.6-8.9-7.5-15.9l0.1-0.3h12.9
				c0,3.9,1.2,6.8,3.5,8.7c2.3,1.9,5.4,2.8,9.4,2.8c3.6,0,6.3-0.7,8.1-2.2c1.9-1.5,2.8-3.5,2.8-6c0-1.8-0.4-3.4-1.3-4.7
				C246.9,415.7,248.4,422.8,237.7,435z"/>
			<linearGradient id="SVGID_5_" gradientUnits="userSpaceOnUse" x1="215.8811" y1="386.4644" x2="267.5688" y2="420.6013">
				<stop  offset="0.2" style="stop-color:#30878D"/>
				<stop  offset="0.2188" style="stop-color:#388D92"/>
				<stop  offset="0.3021" style="stop-color:#55A9A7"/>
				<stop  offset="0.3691" style="stop-color:#67BEB6"/>
				<stop  offset="0.4108" style="stop-color:#6DC8BD"/>
			</linearGradient>
			<path class="st5" d="M239.5,396.4l-4.3,10.4c-0.6-0.2-1.1-0.4-1.8-0.6c-1.7-0.5-3.3-1.1-4.9-1.6l0,0c-7.6-11.8-6.4-19-4.6-22.6
				c-0.4,1-0.6,2.1-0.6,3.2c0,2.3,1,4.1,2.9,5.5c1.9,1.4,5.3,3,10.1,4.6C237.5,395.7,238.5,396.1,239.5,396.4z"/>
			<path class="st3" d="M258.9,416.7c0,5.7-2.2,10.2-6.7,13.5c-3.8,2.8-8.6,4.4-14.5,4.8c10.7-12.2,9.1-19.3,6.5-22.9
				c-0.6-0.8-1.3-1.4-1.9-1.9c0,0,0,0,0,0c-1-0.8-1.7-1.1-1.8-1.1c0,0,0,0,0,0l12.5-5.6c0,0,0,0,0.1,0.1
				C257,406.9,258.9,411.3,258.9,416.7z"/>
		</g>
		<g>
			<path class="st3" d="M294.4,399.4c0.1,0,5.9,0,12.8,9.2v12.9c-1,1-2.4,1.8-4.3,2.4c-0.9,0.3-2,0.6-3.3,0.7
				c-1.2,0.2-2.7,0.2-4.2,0.2c-4.3,0-7.7-1.6-10.3-4.7c-0.9-1.2-1.7-2.4-2.3-3.8c-1-2.4-1.5-5.2-1.5-8.4v-14c0-1.1,0.1-2.1,0.2-3.1
				c0.4-3.6,1.6-6.6,3.6-9c2.5-3.1,5.8-4.7,9.9-4.7c3.9,0,6.9,1,8.9,2.9l0,0c2,2,3,4.7,3,8.2h12.5l0.1-0.3
				c0.2-6.4-1.9-11.6-6.3-15.4c-1.7-1.5-3.6-2.7-5.8-3.6c-3.6-1.5-7.8-2.2-12.8-2.2c-7.8,0-14.2,2.5-19.1,7.6
				c-5,5.1-7.4,11.6-7.4,19.6v13.9c0,8.1,2.6,14.6,7.7,19.7c5.1,5,11.7,7.6,19.7,7.6c1.2,0,2.4,0,3.6-0.1l0,0
				c1.8-0.1,3.5-0.3,5.1-0.6h0c2.7-0.5,5.1-1.3,7.2-2.3c4.1-2,7.2-4.3,9.3-7.1v-25.6H294.4z"/>
			<linearGradient id="SVGID_6_" gradientUnits="userSpaceOnUse" x1="268.0841" y1="396.0763" x2="338.7193" y2="343.0277">
				<stop  offset="0.2" style="stop-color:#30878D"/>
				<stop  offset="0.2222" style="stop-color:#388D92"/>
				<stop  offset="0.3205" style="stop-color:#55A9A7"/>
				<stop  offset="0.3994" style="stop-color:#67BEB6"/>
				<stop  offset="0.4486" style="stop-color:#6DC8BD"/>
			</linearGradient>
			<path class="st6" d="M307.5,368.9l-3.6,11l0,0c-2-2-5-2.9-8.9-2.9c-4.1,0-7.4,1.6-9.9,4.7c-1.9,2.5-3.1,5.5-3.6,9
				c-2.3-20.1,13.1-24,13.1-24C299.6,366.7,303.9,367.5,307.5,368.9z"/>
			<linearGradient id="SVGID_7_" gradientUnits="userSpaceOnUse" x1="285.5292" y1="431.3027" x2="308.1598" y2="414.3067">
				<stop  offset="0.2" style="stop-color:#30878D"/>
				<stop  offset="0.2222" style="stop-color:#388D92"/>
				<stop  offset="0.3205" style="stop-color:#55A9A7"/>
				<stop  offset="0.3994" style="stop-color:#67BEB6"/>
				<stop  offset="0.4486" style="stop-color:#6DC8BD"/>
			</linearGradient>
			<path class="st7" d="M304.1,434.4L304.1,434.4L299,435l0,0c0,0-14.6-6.1-16.1-18.7c0.6,1.4,1.4,2.7,2.3,3.8
				c2.6,3.2,6,4.7,10.3,4.7c1.6,0,3-0.1,4.2-0.2L304.1,434.4z"/>
			<linearGradient id="SVGID_8_" gradientUnits="userSpaceOnUse" x1="307.19" y1="408.46" x2="279.8733" y2="398.5923">
				<stop  offset="0.2" style="stop-color:#30878D"/>
				<stop  offset="0.2222" style="stop-color:#388D92"/>
				<stop  offset="0.3205" style="stop-color:#55A9A7"/>
				<stop  offset="0.3994" style="stop-color:#67BEB6"/>
				<stop  offset="0.4486" style="stop-color:#6DC8BD"/>
			</linearGradient>
			<path class="st8" d="M307.2,408.6h-12.8v-9.2c0,0,0,0,0,0C294.5,399.4,300.4,399.4,307.2,408.6z"/>
		</g>
		<g>
			<path class="st3" d="M347.5,424.6v-19.5h25.4v-10.6h-25.4v-17.2h30.1v-10.6h-43.8v68.4h43.9v-10.5H347.5z"/>
			<linearGradient id="SVGID_9_" gradientUnits="userSpaceOnUse" x1="355.6823" y1="366.7332" x2="355.6823" y2="366.7332">
				<stop  offset="0.2" style="stop-color:#30878D"/>
				<stop  offset="0.2222" style="stop-color:#388D92"/>
				<stop  offset="0.3205" style="stop-color:#55A9A7"/>
				<stop  offset="0.3994" style="stop-color:#67BEB6"/>
				<stop  offset="0.4486" style="stop-color:#6DC8BD"/>
			</linearGradient>
			<path class="st9" d="M355.7,366.7"/>
			<linearGradient id="SVGID_10_" gradientUnits="userSpaceOnUse" x1="355.6823" y1="366.7332" x2="355.6823" y2="366.7332">
				<stop  offset="0.2" style="stop-color:#30878D"/>
				<stop  offset="0.2222" style="stop-color:#388D92"/>
				<stop  offset="0.3205" style="stop-color:#55A9A7"/>
				<stop  offset="0.3994" style="stop-color:#67BEB6"/>
				<stop  offset="0.4486" style="stop-color:#6DC8BD"/>
			</linearGradient>
			<path class="st10" d="M355.7,366.7"/>
			<linearGradient id="SVGID_11_" gradientUnits="userSpaceOnUse" x1="335.0404" y1="383.9271" x2="399.7063" y2="361.9458">
				<stop  offset="0.2" style="stop-color:#30878D"/>
				<stop  offset="0.2222" style="stop-color:#388D92"/>
				<stop  offset="0.3205" style="stop-color:#55A9A7"/>
				<stop  offset="0.3994" style="stop-color:#67BEB6"/>
				<stop  offset="0.4486" style="stop-color:#6DC8BD"/>
			</linearGradient>
			<path class="st11" d="M377.5,366.7v10.6h-30.1c0,0,0.9-5.6,15.2-10.6H377.5z"/>
			<linearGradient id="SVGID_12_" gradientUnits="userSpaceOnUse" x1="374.9772" y1="440.1526" x2="302.1519" y2="413.2444">
				<stop  offset="0.2" style="stop-color:#30878D"/>
				<stop  offset="0.2222" style="stop-color:#388D92"/>
				<stop  offset="0.3205" style="stop-color:#55A9A7"/>
				<stop  offset="0.3994" style="stop-color:#67BEB6"/>
				<stop  offset="0.4486" style="stop-color:#6DC8BD"/>
			</linearGradient>
			<path class="st12" d="M377.6,435.1h-43.9v-20.4C333.8,414.7,345.9,430.2,377.6,435.1z"/>
		</g>
		<g>
			<path class="st3" d="M428.8,366.7v46l-0.3,0L401,366.7h-13.7v68.4H401V389l0.3,0l27.6,46.1h13.7v-68.4H428.8z"/>
			<linearGradient id="SVGID_13_" gradientUnits="userSpaceOnUse" x1="400.9551" y1="366.7332" x2="400.9551" y2="366.7332">
				<stop  offset="0.2" style="stop-color:#30878D"/>
				<stop  offset="0.2222" style="stop-color:#388D92"/>
				<stop  offset="0.3205" style="stop-color:#55A9A7"/>
				<stop  offset="0.3994" style="stop-color:#67BEB6"/>
				<stop  offset="0.4486" style="stop-color:#6DC8BD"/>
			</linearGradient>
			<path class="st13" d="M401,366.7"/>
			<linearGradient id="SVGID_14_" gradientUnits="userSpaceOnUse" x1="394.5689" y1="447.1747" x2="394.2911" y2="323.5599">
				<stop  offset="0.2" style="stop-color:#30878D"/>
				<stop  offset="0.2222" style="stop-color:#388D92"/>
				<stop  offset="0.3205" style="stop-color:#55A9A7"/>
				<stop  offset="0.3994" style="stop-color:#67BEB6"/>
				<stop  offset="0.4486" style="stop-color:#6DC8BD"/>
			</linearGradient>
			<path class="st14" d="M387.2,435.1v-68.4H401C401,366.7,406.6,391.6,387.2,435.1z"/>
			
				<linearGradient id="SVGID_15_" gradientUnits="userSpaceOnUse" x1="436.1124" y1="-858.8112" x2="435.8346" y2="-982.4261" gradientTransform="matrix(1 0 0 -1 0 -504.1411)">
				<stop  offset="0.2" style="stop-color:#30878D"/>
				<stop  offset="0.2222" style="stop-color:#388D92"/>
				<stop  offset="0.3205" style="stop-color:#55A9A7"/>
				<stop  offset="0.3994" style="stop-color:#67BEB6"/>
				<stop  offset="0.4486" style="stop-color:#6DC8BD"/>
			</linearGradient>
			<path class="st15" d="M428.8,366.7v68.4h13.7C442.5,435.1,448.1,410.2,428.8,366.7z"/>
		</g>
		<g>
			<g>
				<path class="st3" d="M201.2,431l-1.4-1.9c0,0,0,0,0,0l-21.3-30.5l23.7-31.8h-17c0,0,0,0,0,0.1l-18.7,27.9h-3.9v-27.9h-13.7v68.4
					h13.7v-28.6h5l18.9,28.6H204L201.2,431z"/>
			</g>
			<linearGradient id="SVGID_16_" gradientUnits="userSpaceOnUse" x1="173.6781" y1="411.9307" x2="206.312" y2="337.3026">
				<stop  offset="0.2" style="stop-color:#30878D"/>
				<stop  offset="0.2222" style="stop-color:#388D92"/>
				<stop  offset="0.3205" style="stop-color:#55A9A7"/>
				<stop  offset="0.3994" style="stop-color:#67BEB6"/>
				<stop  offset="0.4486" style="stop-color:#6DC8BD"/>
			</linearGradient>
			<path class="st16" d="M202.2,366.7l-23.7,31.8c-5.1-12.1,6-30.6,6.7-31.7c0,0,0-0.1,0-0.1H202.2z"/>
			<linearGradient id="SVGID_17_" gradientUnits="userSpaceOnUse" x1="214.4489" y1="444.7118" x2="116.6474" y2="379.8434">
				<stop  offset="0.2" style="stop-color:#30878D"/>
				<stop  offset="0.2222" style="stop-color:#388D92"/>
				<stop  offset="0.3205" style="stop-color:#55A9A7"/>
				<stop  offset="0.3994" style="stop-color:#67BEB6"/>
				<stop  offset="0.4486" style="stop-color:#6DC8BD"/>
			</linearGradient>
			<path class="st17" d="M203.6,435.1h-17.1l-18.9-28.6c0,0,23.9,11.2,32.1,22.5c0,0,0,0,0,0c0.5,0.7,0.9,1.3,1.4,1.9
				C202.1,432.4,202.9,433.8,203.6,435.1z"/>
			<linearGradient id="SVGID_18_" gradientUnits="userSpaceOnUse" x1="146.4994" y1="427.4779" x2="162.4261" y2="323.5201">
				<stop  offset="0.2" style="stop-color:#30878D"/>
				<stop  offset="0.2222" style="stop-color:#388D92"/>
				<stop  offset="0.3205" style="stop-color:#55A9A7"/>
				<stop  offset="0.3994" style="stop-color:#67BEB6"/>
				<stop  offset="0.4486" style="stop-color:#6DC8BD"/>
			</linearGradient>
			<path class="st18" d="M162.7,366.7c0,0-11.9,23.4-13.7,48.1v-48.1H162.7z"/>
		</g>
		<g>
			<linearGradient id="SVGID_19_" gradientUnits="userSpaceOnUse" x1="100.3159" y1="431.2455" x2="136.9234" y2="375.9312">
				<stop  offset="0.2" style="stop-color:#30878D"/>
				<stop  offset="0.2222" style="stop-color:#388D92"/>
				<stop  offset="0.3205" style="stop-color:#55A9A7"/>
				<stop  offset="0.3994" style="stop-color:#67BEB6"/>
				<stop  offset="0.4486" style="stop-color:#6DC8BD"/>
				<stop  offset="0.5657" style="stop-color:#6BC7BA"/>
				<stop  offset="0.6716" style="stop-color:#63C4B3"/>
				<stop  offset="0.7732" style="stop-color:#55C0A6"/>
				<stop  offset="0.8717" style="stop-color:#3DBB96"/>
				<stop  offset="0.9297" style="stop-color:#22B78A"/>
			</linearGradient>
			<path class="st19" d="M137.1,400.9c0,1.5-0.1,2.9-0.3,4.4c-1.1,8.6-5.4,16.2-11.6,21.5c-2.2,0.6-4.4,0.9-6.7,1.1
				c-0.8,0.1-1.7,0.1-2.6,0.1c-4.7,0-9.1-0.9-13.2-2.5c10.2-3.3,18.3-11.4,21.8-21.5c0.3-0.9,0.7-1.7,1-2.7c0.8-2.1,0.8-3.1,0.8-4.9
				c0-0.3,0-0.6,0-1c0.1-0.8,0.1-1.7,0.1-2.5c0-1.3-0.1-2.6-0.2-3.9c-0.8-7.3-4-14-8.7-19.2C129,375.4,137.1,387.2,137.1,400.9z"/>
			<linearGradient id="SVGID_20_" gradientUnits="userSpaceOnUse" x1="62.836" y1="367.9107" x2="128.6327" y2="466.4445">
				<stop  offset="0.2" style="stop-color:#30878D"/>
				<stop  offset="0.2222" style="stop-color:#388D92"/>
				<stop  offset="0.3205" style="stop-color:#55A9A7"/>
				<stop  offset="0.3994" style="stop-color:#67BEB6"/>
				<stop  offset="0.4486" style="stop-color:#6DC8BD"/>
				<stop  offset="0.5657" style="stop-color:#6BC7BA"/>
				<stop  offset="0.6716" style="stop-color:#63C4B3"/>
				<stop  offset="0.7732" style="stop-color:#55C0A6"/>
				<stop  offset="0.8717" style="stop-color:#3DBB96"/>
				<stop  offset="0.9297" style="stop-color:#22B78A"/>
			</linearGradient>
			<path class="st20" d="M125.2,426.8c-4.3,3.7-9.6,6.4-15.4,7.6c-2.2,0.5-4.6,0.7-6.9,0.7c-2.5,0-4.9-0.3-7.2-0.8
				c-7-1.5-13.2-5.1-17.9-10.2c-4.8-5.2-8.1-11.9-8.9-19.4c1.5-6.4,5.3-11.9,10.6-15.7c2.4-1.7,5-3.1,7.9-4c-4.3,2-7.3,6.4-7.3,11.5
				c0,2.2,1.4,6.4,1.3,6.7c3.5,10.2,11.3,18.4,21.3,22.3c4.1,1.6,8.6,2.5,13.2,2.5c0.9,0,1.7,0,2.6-0.1
				C120.8,427.8,123.1,427.4,125.2,426.8z"/>
			<linearGradient id="SVGID_21_" gradientUnits="userSpaceOnUse" x1="130.0565" y1="395.9248" x2="63.9373" y2="379.9594">
				<stop  offset="0.2" style="stop-color:#30878D"/>
				<stop  offset="0.2222" style="stop-color:#388D92"/>
				<stop  offset="0.3205" style="stop-color:#55A9A7"/>
				<stop  offset="0.3994" style="stop-color:#67BEB6"/>
				<stop  offset="0.4486" style="stop-color:#6DC8BD"/>
				<stop  offset="0.5657" style="stop-color:#6BC7BA"/>
				<stop  offset="0.6716" style="stop-color:#63C4B3"/>
				<stop  offset="0.7732" style="stop-color:#55C0A6"/>
				<stop  offset="0.8717" style="stop-color:#3DBB96"/>
				<stop  offset="0.9297" style="stop-color:#22B78A"/>
			</linearGradient>
			<path class="st21" d="M126.3,393c0,0.8,0,1.7-0.1,2.5c-0.3-3.9-2.3-7.3-5.3-9.4c-2.1-1.5-4.6-2.3-7.3-2.3c-0.3,0-0.7,0-1,0
				c-1.9,0.2-3.7,0.7-5.3,1.6c-1.6,0.9-3.1,2.2-4.1,3.8c-1.2-1.6-2.7-3-4.4-3.9c-1.8-0.9-3.8-1.5-5.9-1.5c-0.1,0-0.2,0-0.3,0
				c-1.8,0-3.5,0.5-5,1.2c-2.9,0.9-5.5,2.3-7.9,4c-5.3,3.8-9.1,9.3-10.6,15.7c-0.1-1.3-0.2-2.6-0.2-3.9c0-12.5,6.7-23.4,16.7-29.4
				c5.1-3.1,11.1-4.8,17.5-4.8c5.2,0,10,1.1,14.4,3.2c4.7,5.2,7.9,11.8,8.7,19.2C126.2,390.4,126.3,391.7,126.3,393z"/>
		</g>
	</g>
</g>
</svg>
